:version 1.10
:name ASF
:units
  mass 1
  length 1
  angle deg
:documentation
  ASF file generated by Kaydara
:root
  axis xyz
  order  tx ty tz rx ry rz
  position 0 0 0
  orientation 0 0 0
:bonedata
  begin
    id 1
    name LeftUpLegDummy
    direction 1 -2.30186e-007 -8.31532e-007
    length 2.93387
    axis 0 0 0 xyz
  end
  begin
    id 2
    name LeftUpLeg
    direction -1.82929e-007 -1 -1.48925e-009
    length 17.3336
    axis -3.48766 0.00143442 -0.000521554 xyz
    dof rx ry rz
  end
  begin
    id 3
    name LeftLeg
    direction -1.82929e-007 -1 -5.23717e-011
    length 14.9995
    axis 3.68178 -0.00654042 -0.000282425 xyz
    dof rx ry rz
  end
  begin
    id 4
    name LeftFoot
    direction 8.31532e-007 -4.54534e-011 1
    length 6.74421
    axis 1.87234e-006 4.66016e-005 -5.96866e-006 xyz
    dof rx ry rz
  end
  begin
    id 5
    name LeftToes
    direction 0.00818058 -0.00485161 0.999955
    length 3.85048
    axis 1.06247e-005 4.65869e-005 -5.96999e-006 xyz
    dof rx ry rz
  end
  begin
    id 6
    name SpineDummy
    direction -5.8607e-008 0.943407 -0.331637
    length 5.93572
    axis 0 0 0 xyz
  end
  begin
    id 7
    name Spine
    direction -1.04988e-007 0.999988 0.00495137
    length 10.1015
    axis -0.001389 0.000121417 6.61666e-006 xyz
    dof rx ry rz
  end
  begin
    id 8
    name Spine1
    direction 0 0 0
    length 0
    axis -0.001389 0.00012144 6.56766e-006 xyz
    dof rx ry rz
  end
  begin
    id 9
    name RightShoulderDummy
    direction -0.98348 0.17941 -0.0240696
    length 3.59882
    axis -0.001389 0.00012144 6.56766e-006 xyz
  end
  begin
    id 10
    name RightShoulder
    direction -0.978693 0.204882 0.0135597
    length 2.70001
    axis 0.215806 0.000203631 -0.00679732 xyz
    dof rx ry rz
  end
  begin
    id 11
    name RightArm
    direction -1 3.85509e-006 8.31394e-007
    length 10.2459
    axis -23.2009 -0.134239 -0.964098 xyz
    dof rx ry rz
  end
  begin
    id 12
    name RightForeArm
    direction -1 3.85569e-006 8.3129e-007
    length 8.16799
    axis -9.92322 0.0658061 0.17887 xyz
    dof rx ry rz
  end
  begin
    id 13
    name RightHand
    direction -0.992843 -0.0414604 0.112003
    length 5.28593
    axis -0.00960638 0.00330669 -0.185225 xyz
    dof rx ry rz
  end
  begin
    id 14
    name LeftShoulder1Dummy
    direction 0.983523 0.179172 -0.0240748
    length 3.59866
    axis -0.001389 0.00012144 6.56766e-006 xyz
  end
  begin
    id 15
    name LeftShoulder1
    direction 0.978627 0.205195 0.0135605
    length 2.70019
    axis -0.001389 0.00012144 6.57583e-006 xyz
    dof rx ry rz
  end
  begin
    id 16
    name LeftArm
    direction 1 3.51895e-006 -8.60188e-007
    length 10.2459
    axis -23.1894 0.134785 0.967513 xyz
    dof rx ry rz
  end
  begin
    id 17
    name LeftForeArm
    direction 1 3.51921e-006 -7.32029e-007
    length 8.16799
    axis -9.91835 -0.0656957 -0.177789 xyz
    dof rx ry rz
  end
  begin
    id 18
    name LeftHand
    direction 0.992938 -0.0411636 0.11126
    length 5.32135
    axis -0.00960237 -0.00340661 0.185177 xyz
    dof rx ry rz
  end
  begin
    id 19
    name HEadDummy
    direction 1.01974e-006 0.999861 -0.016675
    length 2.99946
    axis -0.001389 0.00012144 6.56766e-006 xyz
  end
  begin
    id 20
    name HEad
    direction -0.0222689 0.980941 0.193023
    length 5.12695
    axis -0.001389 0.00012144 6.56766e-006 xyz
    dof rx ry rz
  end
  begin
    id 21
    name RightUpLegDummy
    direction -1 2.30186e-007 8.31532e-007
    length 2.93387
    axis 0 0 0 xyz
  end
  begin
    id 22
    name RightUpLeg
    direction -1.82966e-007 -1 1.56832e-007
    length 17.3336
    axis -3.4909 -0.000906625 0.00028951 xyz
    dof rx ry rz
  end
  begin
    id 23
    name RightLeg
    direction -1.82786e-007 -1 -1.80317e-007
    length 14.9995
    axis 3.68513 0.0193739 -0.131021 xyz
    dof rx ry rz
  end
  begin
    id 24
    name RightFoot
    direction 8.31721e-007 -4.63324e-011 1
    length 6.74421
    axis 4.81691e-005 -0.120479 -0.188785 xyz
    dof rx ry rz
  end
  begin
    id 25
    name RightToes
    direction 0.00124746 -0.014064 0.9999
    length 3.85082
    axis 0.000481921 0.542163 -0.142575 xyz
    dof rx ry rz
  end
:hierarchy
  begin
    root LeftUpLegDummy SpineDummy RightUpLegDummy
    LeftUpLegDummy LeftUpLeg
    LeftUpLeg LeftLeg
    LeftLeg LeftFoot
    LeftFoot LeftToes
    SpineDummy Spine
    Spine Spine1
    Spine1 RightShoulderDummy LeftShoulder1Dummy HEadDummy
    RightShoulderDummy RightShoulder
    RightShoulder RightArm
    RightArm RightForeArm
    RightForeArm RightHand
    LeftShoulder1Dummy LeftShoulder1
    LeftShoulder1 LeftArm
    LeftArm LeftForeArm
    LeftForeArm LeftHand
    HEadDummy HEad
    RightUpLegDummy RightUpLeg
    RightUpLeg RightLeg
    RightLeg RightFoot
    RightFoot RightToes
  end

:SAMPLES-PER-SECOND 30
:FULLY-SPECIFIED
:DEGREES
90
root  1.34201 34.1442 -9.34986 3.66278 36.9603 0.475292
LeftUpLeg  -19.4079 4.14688 1.76547
LeftLeg  10.8325 5.85427 0.731891
LeftFoot  7.46018 -0.0529906 0.812785
LeftToes  -14.5506 1.61378e-006 8.80029e-008
Spine  3.76766 2.72756 -0.032852
Spine1  7.27821 5.91694 -0.51462
RightShoulder  0.0559233 1.19319 -0.961084
RightArm  -21.2781 17.5206 70.4481
RightForeArm  65.408 76.9825 50.3253
RightHand  0.227301 -3.33608 -7.40882
LeftShoulder1  -0.0156881 -0.7233 -5.24189
LeftArm  -19.8233 19.5395 -73.4387
LeftForeArm  28.8518 -28.83 -5.56184
LeftHand  0.112338 2.87579 4.09326
HEad  9.56147 -24.3236 -4.32724
RightUpLeg  -7.43397 -14.6009 6.33503
RightLeg  9.05378 0.531215 0.0513411
RightFoot  -1.84104 -0.00589445 0.0106979
RightToes  -8.25878 -0.0270418 -0.0781177
91
root  1.48808 34.0668 -9.03304 3.35962 34.0477 -0.734637
LeftUpLeg  -22.7165 5.68858 1.26392
LeftLeg  6.13366 4.04337 0.172286
LeftFoot  5.17394 -0.0176999 0.391738
LeftToes  -20.1631 1.61378e-006 8.80029e-008
Spine  4.00611 3.00491 0.322796
Spine1  7.77085 6.5098 0.134308
RightShoulder  0.0648791 1.89485 -0.77688
RightArm  -23.5907 20.6512 69.2095
RightForeArm  34.9097 61.7848 19.2819
RightHand  0.240175 -3.23932 -8.0921
LeftShoulder1  -0.0156883 -0.518015 -5.32618
LeftArm  -18.3201 18.0168 -73.9396
LeftForeArm  28.2039 -32.5388 -6.4536
LeftHand  0.105335 2.52544 4.39397
HEad  7.73597 -22.8639 -4.36693
RightUpLeg  -7.38758 -14.5148 7.32702
RightLeg  9.65551 3.35387 0.352168
RightFoot  -2.56285 -0.011195 -0.122955
RightToes  -8.62434 -0.02751 -0.0796834
92
root  1.65095 34.0544 -8.69696 3.87645 31.4126 -0.576478
LeftUpLeg  -26.1966 8.6281 -1.33724
LeftLeg  2.74917 1.9251 -0.0316483
LeftFoot  5.61584 -0.00309573 0.208673
LeftToes  -24.9511 1.61378e-006 8.80029e-008
Spine  4.26464 3.11869 0.251607
Spine1  8.26909 6.76515 -0.0195398
RightShoulder  0.0707301 2.66071 -0.706458
RightArm  -27.1931 23.9221 69.2351
RightForeArm  26.5078 41.6458 9.03059
RightHand  0.274389 -3.53696 -8.48348
LeftShoulder1  -0.0154128 -0.596113 -5.25416
LeftArm  -16.9835 16.3519 -73.7771
LeftForeArm  27.6177 -34.944 -7.07341
LeftHand  0.102432 2.26693 4.78908
HEad  6.00605 -21.6299 -4.26494
RightUpLeg  -7.21519 -14.5045 7.13966
RightLeg  10.0684 5.97199 0.668958
RightFoot  -3.202 -0.019234 -0.310668
RightToes  -8.85382 -0.0284043 -0.0817428
93
root  1.86655 34.0399 -8.27078 4.4395 28.7284 -0.267544
LeftUpLeg  -30.537 13.3624 -4.99501
LeftLeg  3.39338 -1.53683 0.00734437
LeftFoot  5.07366 0.0181768 -0.101904
LeftToes  -27.6109 1.61378e-006 8.80029e-008
Spine  4.58681 3.55993 -0.0294604
Spine1  8.81919 8.02545 -0.821586
RightShoulder  0.103827 4.21587 -0.519903
RightArm  -34.6377 25.2576 68.3012
RightForeArm  25.0136 21.5068 3.97936
RightHand  0.463902 -5.37414 -9.47856
LeftShoulder1  -0.0148815 -0.870659 -4.89133
LeftArm  -15.8797 14.4352 -73.2906
LeftForeArm  27.6104 -36.9478 -7.61901
LeftHand  0.0988166 2.06795 5.08392
HEad  4.57384 -20.9228 -3.51299
RightUpLeg  -6.76667 -13.7341 6.72329
RightLeg  10.3112 7.78154 0.903677
RightFoot  -3.82845 -0.0292397 -0.497391
RightToes  -9.64544 -0.0312892 -0.088819
94
root  2.11889 33.9915 -7.75611 4.93265 25.3847 -0.0275298
LeftUpLeg  -34.5392 16.5373 -7.52289
LeftLeg  6.28221 -1.88119 -0.0861463
LeftFoot  4.48856 0.0177491 -0.0953489
LeftToes  -27.7383 1.61378e-006 8.80029e-008
Spine  4.88724 4.31524 -0.372745
Spine1  9.16122 9.89449 -1.83586
RightShoulder  0.177427 6.53358 -0.597622
RightArm  -44.203 22.011 66.8853
RightForeArm  28.3697 11.0915 1.97921
RightHand  0.930658 -8.83687 -11.622
LeftShoulder1  -0.0141139 -0.818221 -4.52659
LeftArm  -15.0808 12.7774 -72.7447
LeftForeArm  28.2612 -38.5516 -8.07727
LeftHand  0.0901328 1.87312 5.12035
HEad  3.32424 -20.3923 -2.83297
RightUpLeg  -6.45916 -12.1109 6.256
RightLeg  11.272 9.32491 1.2394
RightFoot  -4.78829 -0.0480607 -0.772027
RightToes  -10.6678 -0.0350554 -0.0978922
95
root  2.37802 33.9464 -7.14126 5.058 21.3112 -0.244737
LeftUpLeg  -35.8023 17.6065 -7.25263
LeftLeg  7.14253 -1.49532 -0.0912419
LeftFoot  4.62032 0.0154555 -0.0761156
LeftToes  -26.8824 1.61378e-006 8.80029e-008
Spine  4.85802 4.74841 -0.749569
Spine1  9.08525 10.6043 -2.34393
RightShoulder  0.199252 8.70839 -0.309681
RightArm  -47.3351 16.1061 66.1034
RightForeArm  30.6881 5.27809 0.935542
RightHand  1.49223 -12.612 -13.0656
LeftShoulder1  -0.0131299 -0.548844 -4.70016
LeftArm  -14.8625 12.5034 -71.6696
LeftForeArm  28.5089 -39.8521 -8.4648
LeftHand  0.0848082 1.72657 5.23275
HEad  2.46606 -19.3302 -2.57881
RightUpLeg  -5.68209 -10.65 6.05309
RightLeg  11.9778 11.6379 1.6881
RightFoot  -5.5586 -0.0741986 -1.15093
RightToes  -11.433 -0.039019 -0.104633
96
root  2.65953 33.8438 -6.40206 5.11284 17.3205 -1.17126
LeftUpLeg  -34.5703 16.0167 -3.99576
LeftLeg  6.02447 -0.992939 -0.041313
LeftFoot  5.3826 0.0133754 -0.0727364
LeftToes  -26.3369 1.61378e-006 8.80029e-008
Spine  4.54388 4.856 -0.902319
Spine1  8.58237 10.5197 -2.30183
RightShoulder  0.19463 10.9348 1.33666
RightArm  -47.0017 8.16584 65.1658
RightForeArm  34.7009 3.37892 0.597864
RightHand  1.47498 -13.6377 -11.9128
LeftShoulder1  -0.0119491 -0.0379612 -5.5422
LeftArm  -15.1512 13.4287 -70.1956
LeftForeArm  28.1124 -40.8211 -8.76378
LeftHand  0.0713387 1.38387 5.50411
HEad  1.60932 -17.3276 -2.68636
RightUpLeg  -4.88835 -9.95633 6.40379
RightLeg  12.9048 14.5526 2.34093
RightFoot  -6.68569 -0.124928 -1.7612
RightToes  -12.3746 -0.0431494 -0.112867
97
root  2.97852 33.6598 -5.56344 5.01867 13.9532 -2.57115
LeftUpLeg  -31.992 12.1704 0.846441
LeftLeg  5.17695 0.661478 0.0166695
LeftFoot  5.81992 0.00230264 0.0616402
LeftToes  -26.1232 1.61378e-006 8.80029e-008
Spine  4.21351 4.61761 -0.724526
Spine1  8.05573 9.8126 -1.73724
RightShoulder  0.191166 12.2054 4.12417
RightArm  -44.8747 -0.392638 63.7963
RightForeArm  38.5212 4.1041 0.721797
RightHand  1.12949 -11.9324 -10.4005
LeftShoulder1  -0.0105912 0.689377 -6.81802
LeftArm  -15.343 14.9559 -68.6478
LeftForeArm  26.9252 -41.0518 -8.83664
LeftHand  0.0762664 1.37664 5.94169
HEad  0.647266 -14.6215 -3.27568
RightUpLeg  -3.92313 -9.55098 7.03411
RightLeg  14.173 17.2135 3.14269
RightFoot  -8.15845 -0.210749 -2.57716
RightToes  -14.4918 -0.0529275 -0.131128
98
root  3.32955 33.4416 -4.62374 5.08615 11.3592 -4.02803
LeftUpLeg  -29.2876 8.29085 4.90561
LeftLeg  5.75821 1.31718 0.0470894
LeftFoot  6.51514 -0.00427681 0.12122
LeftToes  -27.0573 1.61378e-006 8.80029e-008
Spine  3.87786 4.12151 -0.336206
Spine1  7.51499 8.61562 -0.81875
RightShoulder  0.177835 12.0957 7.39482
RightArm  -41.7415 -9.11625 61.4573
RightForeArm  39.5727 6.61318 1.16444
RightHand  0.707657 -8.69994 -8.9061
LeftShoulder1  -0.00907589 1.49558 -8.07301
LeftArm  -15.7079 16.2457 -67.6373
LeftForeArm  26.1389 -39.2178 -8.2746
LeftHand  0.0735305 1.28593 6.14192
HEad  -0.293832 -12.0198 -4.02882
RightUpLeg  -3.05474 -8.83605 7.70431
RightLeg  15.8234 18.8279 3.97859
RightFoot  -9.89761 -0.332194 -3.45775
RightToes  -15.5896 -0.0582609 -0.14045
99
root  3.70826 33.2871 -3.60494 5.70494 9.5068 -4.50841
LeftUpLeg  -26.5153 5.89099 6.44933
LeftLeg  4.325 -0.0835953 -0.00143615
LeftFoot  8.85743 0.00414933 -0.0535834
LeftToes  -27.4547 1.61378e-006 8.80029e-008
Spine  3.44052 3.44593 -0.227123
Spine1  6.74943 7.07214 -0.44712
RightShoulder  0.130963 10.5206 9.62823
RightArm  -37.7303 -17.5771 59.478
RightForeArm  36.2988 9.85191 1.74833
RightHand  0.381905 -5.72999 -7.24169
LeftShoulder1  -0.00742289 2.1396 -8.90574
LeftArm  -16.6616 17.2329 -67.1024
LeftForeArm  26.7433 -35.0377 -7.09858
LeftHand  0.0808677 1.54299 5.60467
HEad  -1.15727 -9.76662 -4.81821
RightUpLeg  -2.25691 -7.69055 7.48669
RightLeg  17.0379 19.425 4.52175
RightFoot  -11.343 -0.445201 -4.10336
RightToes  -16.4051 -0.0623382 -0.147308
100
root  4.10647 33.2437 -2.59256 6.2729 8.21584 -3.63169
LeftUpLeg  -25.0043 4.01368 6.1703
LeftLeg  3.23015 0.318947 -0.00288577
LeftFoot  15.9436 -0.00741052 0.0529085
LeftToes  -26.0675 1.61378e-006 8.80029e-008
Spine  3.04629 2.65646 -0.656008
Spine1  6.03807 5.36385 -1.22908
RightShoulder  0.0688584 8.78715 10.4859
RightArm  -35.2729 -25.0806 58.488
RightForeArm  31.9528 11.7582 2.09908
RightHand  0.257544 -4.62437 -5.99337
LeftShoulder1  -0.0056519 2.30113 -9.53913
LeftArm  -18.2987 17.9228 -66.2308
LeftForeArm  27.9478 -29.1164 -5.62863
LeftHand  0.0896866 2.10174 4.50158
HEad  -1.64071 -7.67491 -4.92751
RightUpLeg  -1.39959 -5.962 6.05529
RightLeg  18.3792 18.8388 4.84749
RightFoot  -12.5 -0.52008 -4.36885
RightToes  -16.5786 -0.0609075 -0.144946
101
root  4.46448 33.348 -1.71818 6.20072 7.44174 -2.21491
LeftUpLeg  -23.0314 5.73351 4.27167
LeftLeg  2.57412 -0.660232 0.0124689
LeftFoot  20.4031 0.0413892 -0.230005
LeftToes  -29.7737 1.61378e-006 8.80029e-008
Spine  2.95093 1.94564 -1.46191
Spine1  5.8584 3.9793 -2.76417
RightShoulder  0.0129074 7.5162 10.0629
RightArm  -38.2604 -30.6885 59.3001
RightForeArm  31.8019 10.8152 1.92684
RightHand  0.300134 -4.89765 -6.63042
LeftShoulder1  -0.00378261 2.22098 -9.90117
LeftArm  -20.0202 17.6927 -65.1038
LeftForeArm  29.2181 -22.5789 -4.19622
LeftHand  0.0958478 2.57609 3.88049
HEad  -1.64223 -5.89656 -4.47047
RightUpLeg  -0.294855 -3.14372 4.43667
RightLeg  19.6911 16.7468 4.73043
RightFoot  -12.8426 -0.487234 -3.9499
RightToes  -15.9496 -0.0600486 -0.143485
102
root  4.86407 33.5419 -0.86948 5.71477 6.01965 -0.582365
LeftUpLeg  -22.6608 8.43862 2.06677
LeftLeg  6.95585 -3.18404 -0.182851
LeftFoot  17.2556 0.139549 -0.919695
LeftToes  -27.0216 1.61378e-006 8.80029e-008
Spine  3.06776 1.68167 -2.365
Spine1  6.03399 3.56014 -4.60786
RightShoulder  -0.00387255 7.39075 9.00586
RightArm  -46.4941 -36.8051 62.1533
RightForeArm  34.2632 13.4599 2.41158
RightHand  0.544778 -6.29425 -9.50378
LeftShoulder1  -0.00183472 1.80401 -9.61616
LeftArm  -21.9975 17.27 -64.4884
LeftForeArm  31.0381 -17.0258 -3.08731
LeftHand  0.108638 3.18104 3.5333
HEad  -1.49631 -4.73185 -3.64995
RightUpLeg  -0.0178973 -1.98107 2.07981
RightLeg  23.6172 16.4911 5.88068
RightFoot  -12.2993 -0.449265 -3.79055
RightToes  -17.2013 -0.0664127 -0.153948
103
root  5.29463 33.7699 -0.0235486 5.16469 2.83997 -0.139557
LeftUpLeg  -21.1117 11.5429 1.32835
LeftLeg  9.22389 -3.72763 -0.362498
LeftFoot  14.3507 0.112784 -0.895867
LeftToes  -23.6935 1.61378e-006 8.80029e-008
Spine  3.20484 2.01794 -2.81036
Spine1  6.24312 4.29227 -5.5373
RightShoulder  -0.0105529 8.4259 7.66216
RightArm  -55.2718 -41.9171 65.084
RightForeArm  35.1027 14.8248 2.66634
RightHand  1.06257 -8.53185 -13.7922
LeftShoulder1  0.000172068 1.49254 -9.24902
LeftArm  -24.2671 17.597 -64.7212
LeftForeArm  32.8089 -14.633 -2.63092
LeftHand  0.12709 3.96707 3.29265
HEad  -1.28858 -3.28693 -3.13261
RightUpLeg  -0.926147 -1.29457 0.183299
RightLeg  29.5431 18.0342 8.53483
RightFoot  -10.2076 -0.356806 -3.61603
RightToes  -21.1526 -0.0879765 -0.186024
